<?xml version="1.0" encoding="utf-8"?>

<!DOCTYPE svg PUBLIC "-//W3C//DTD SVG 1.1//EN" "http://www.w3.org/Graphics/SVG/1.1/DTD/svg11.dtd">
<svg version="1.1" id="Layer_1" xmlns="http://www.w3.org/2000/svg" xmlns:xlink="http://www.w3.org/1999/xlink" x="0px" y="0px"
	 viewBox="0 0 347 1584" enable-background="new 0 0 347 1584" xml:space="preserve">
<path d="M334.6064,1445.0381c-0.0342-0.9021-0.0706-1.8101-0.1064-2.7168V1426h-0.6384c-0.0203-0.5842-0.0337-1.1658-0.0533-1.75
	h-20.29c-3.0676,0-9.7435,1.3147-12.5067,0.0026c-4.8943-2.324-2.8993-16.807-2.8993-16.807s-12.5896-0.3894-15.8561-5.1106
	c-2.1426-3.0967-3.1233-6.843-3.7837-10.5503c-0.8779-4.9286-1.2581-9.9308-1.6097-14.9246
	c-1.934-27.467-3.0389-54.9926-3.3141-82.5262c-0.1282-12.8113,1.4192-25.0155,1.0144-37.8114
	c-0.4836-15.2903-0.9675-30.5806-1.4512-45.8707c-0.9946-37.7928-2.5344-75.5283-2.5806-113.2654
	c-0.2012-164.108-6.8287-328.3036-15.3992-492.1741c-0.6797-12.9966-1.2363-25.996-1.8557-38.9896
	c-0.6729-14.1519-1.3691-28.7852-2.0088-43.1836c4.168-4,8.4326-8.0522,12.6719-12.0425c1.2002-0.9678,1.5566-2.4321,1.9014-3.8486
	c0.0889-0.3633,0.1807-0.7393,0.2803-1.1299c-0.4316-0.8145-0.8564-1.6177-1.2705-2.4282c0.4404,0.7114,0.8926,1.4429,1.3291,2.1743
	l0.0234,0.0396l0.04-0.0229c3.6094-2.083,7.1318-4.6001,10.7686-7.6963c5.7568-5.1743,11.709-10.5254,13.7324-18.1367
	c1.0234-2.5469,0.6084-5.2534,0.207-7.8711c-0.0352-0.2319-0.0703-0.4629-0.1055-0.6934c0,0-0.0039-0.0283-0.0303-0.0376
	c-0.3369-0.1167-0.6729-0.2339-1.0068-0.3506c-0.4561-0.1587-0.9092-0.3169-1.3604-0.4731
	c0.1846,0.0249,0.3857,0.0518,0.5859,0.0786c0.3496,0.0469,0.6943,0.0933,0.9287,0.126c0,0,0.0859,0.0122,0.0856,0.0115
	c0.4597,0.0625,1.2692,0.1714,1.7347,0.2151c7.3066-7.3716,15.0596-15.1499,23.7139-23.8135c-0.04-3.3164-0.0625-6.687-0.084-9.9468
	c-0.0576-8.8877-0.1172-18.0776-0.5771-27.1519c-0.4131-0.2749-1.2275-0.8276-1.6475-1.1372
	c0.0684-1.5508,0.1396-3.1543,0.2188-4.7212l0.002-0.0483l-0.0479-0.001c-2.2842-0.0474-4.7363-0.1069-7.1914-0.2178
	c0.3975-5.4697,0.3213-11.0244,0.249-16.3965c-0.0205-1.4712-0.041-2.9927-0.0518-4.4829c0.4189-3.1357,0.2578-6.354,0.1025-9.4663
	c-0.208-4.1572-0.4229-8.4561,0.7549-12.5918c-1.2139-4.5801-1.2598-9.8462-0.1387-16.1182
	c-0.9355-4.2622-0.8887-8.5659-0.5293-13.7158c0.1943-2.4326,0.0469-4.9429-0.0957-7.3711
	c-0.2539-4.3301-0.5166-8.8081,1.1504-13.0259c-1.2861-2.2622-3.6582-2.3608-5.9531-2.4561
	c-0.5371-0.022-1.0918-0.0454-1.6152-0.0977c-1.417-0.0791-2.7705-0.5415-4.0801-0.9888c-0.6719-0.2295-1.3662-0.4668-2.0752-0.6514
	c-1.1787,0.0488-2.3447,0.3306-3.4727,0.603c-1.2383,0.2988-2.5176,0.6079-3.8125,0.6079c-0.1963,0-0.3906-0.0068-0.582-0.021
	c-13.4194-0.3115-25.6512-0.6871-37.3933-1.1482c-0.0101-2.7213,0.0303-5.4886,0.0701-8.1658
	c0.0742-5.0635,0.1514-10.2993-0.1104-15.4492c0.002-0.4688-0.0166-0.9429-0.0352-1.4448
	c-0.0879-2.2856-0.1787-4.6494,1.6826-6.2329c1.7217-1.7979,3.2227-3.8301,4.6738-5.7954c1.6094-2.1802,3.2744-4.4341,5.2432-6.3721
	c1.168-1.0474,1.5244-2.5474,1.8701-3.9976c0.0879-0.3726,0.1797-0.7578,0.2832-1.1245l0.0127-0.0425l-0.042-0.0146
	c-1.0039-0.3477-2.0088-0.6978-3.0127-1.0479c-3.4922-1.2168-7.1025-2.4746-10.6738-3.6343
	c-0.0752-0.2896-0.1865-0.7139-0.2979-1.1382c-0.1124-0.4272-0.2236-0.8507-0.3047-1.166
	c-0.3467-1.4639-0.6602-2.9619-0.9639-4.4106c-0.5977-2.8555-1.2148-5.8081-2.1172-8.6416
	c-0.2207-0.7461-0.4326-1.5098-0.6377-2.2476c-0.6221-2.2407-1.2656-4.5571-2.2451-6.7197
	c-5.2136-10.5645-12.7466-23.8247-24.8271-32.6968c0,0-0.0273-0.0205-0.0469-0.0343c0,0-0.0313-0.0233-0.0316-0.0223
	c-3.9209-2.8941-8.0375-5.5278-12.3397-7.8189c-3.9103-2.0824-8.1671-4.2576-12.4524-5.4321
	c-2.0364-0.5581-3.9336-1.1937-5.8755-2.0428c-1.9405-0.8486-3.9037-1.7148-6.0049-2.0751
	c-0.0469-0.008,0.9415-3.8744,1.0119-4.1459c0.0418,0.1003,0.0836,0.2007,0.1253,0.301c-0.0754-0.1811,0.1876-0.8748,0.2126-1.0997
	c0.0505-0.4539,0.0564-0.9127,0.0208-1.3679c-0.0681-0.8696-0.2898-1.7283-0.6533-2.5213
	c-0.7901-1.7239-2.3316-2.3802-3.9194-3.2937c-1.8988-1.0924-4.1266-2.2463-5.2906-4.1884
	c-0.6583-1.0983-0.5668-1.9946-0.3485-3.1889c0.3084-1.6869,0.2488-3.5179-0.2051-5.2079
	c-0.1974-0.7348-0.4702-1.9166-1.0028-2.4872c-0.6846-0.7335-1.7582-1.0643-2.6553-1.4572
	c1.8847-1.7842,4.0719-3.6141,4.7561-6.2312c0.5435-2.8975-0.3354-5.7949-1.2817-8.5146c-0.7466-2.1348-2.6182-3.3613-4.4282-4.5474
	c-0.5859-0.3843-1.1914-0.7813-1.7417-1.2002c0.417-0.0347,0.8335-0.0703,1.25-0.1055c1.3208-0.1118,2.686-0.2275,4.0288-0.3242
	l0.0415-0.0029l0.0723-1.6924l0.002-0.0508l-0.0503,0.002c-0.665,0.0239-1.3296,0.0449-1.9946,0.0654
	c-0.9736,0.0303-1.9805,0.0615-2.9712,0.103c-0.2251-2.5845-0.7627-5.1826-1.2832-7.6953
	c-0.8628-4.1704-1.7559-8.4824-1.2354-12.8208c0.4473-1.2871,1.4468-2.2896,2.4131-3.2583c0.4414-0.4429,0.8979-0.9004,1.292-1.3765
	c2.4487,0.356,4.9399,0.6826,7.3496,0.998c2.7129,0.3555,5.5186,0.7231,8.2744,1.1348c0.6279,0.8594,1.1543,1.5776,1.709,2.3247
	l0.0332,0.0444l0.0381-0.0396c0.4141-0.4272,0.8398-0.8579,1.252-1.2744c0.2139-0.2158,0.4277-0.4321,0.6416-0.6494
	c4.4385,0.5522,8.7969,1.1304,12.4785,1.6235c0.8779,2.3452,1.7764,4.6416,2.6709,6.8252l0.0469,0.1152l0.04-0.1177
	c0.5586-1.6152,0.9893-3.2949,1.4053-4.9199c0.3389-1.3247,0.6895-2.6924,1.1084-4.02c0.1553,0.5723,0.3076,1.1548,0.4541,1.7197
	c0.7139,2.7417,1.4521,5.5771,2.9072,8.0884l0.0469,0.0801l0.0371-0.085c2.0674-4.7231,2.3789-10.1064,2.6543-14.856l0.0068-0.1235
	l-0.0869,0.0874c-1.7607,1.7681-2.043,4.2314-2.3154,6.6133c-0.1123,0.9795-0.2275,1.9902-0.4463,2.9302
	c-0.5811-1.2402-0.9189-2.6392-1.2461-3.9932c-0.5752-2.3828-1.1699-4.8467-3.1084-6.5127l-0.0596-0.0518l-0.0166,0.0781
	c-0.2314,1.1157-0.4424,2.2554-0.6465,3.3574c-0.2842,1.5337-0.5781,3.1182-0.9316,4.6655c-0.8926-1.1646-1.3076-2.605-1.709-3.9985
	c-0.543-1.8882-1.1055-3.8403-2.8711-5.0537l-0.0908-0.063l0.0186,0.1094c0.3545,2.0737,0.8574,4.1489,1.3447,6.1553l0.0898,0.3726
	c-0.9678-0.1206-1.9346-0.2397-2.9004-0.3589c-3.0352-0.373-6.1719-0.7593-9.25-1.1899c-0.3008-0.4819-0.873-1.4238-1.168-1.9111
	l-0.0215-0.0356l-0.0381,0.0176c-0.1367,0.063-0.2744,0.1274-0.4121,0.1919c-1.0342,0.4849-2.1025,0.9863-3.2471,0.9863
	c-0.2305,0-0.46-0.021-0.6875-0.0625c-4.8076-0.4077-9.6577-1.1392-14.3477-1.8462l-0.313-0.0474
	c1.4058-1.1147,2.9722-2.2402,4.7847-3.439c0.2446,0.0703,0.6045,0.1748,0.9639,0.2793c0.3701,0.1079,0.7402,0.2153,0.9854,0.2852
	l0.0469,0.0137l0.0112-0.0474c0.0845-0.3481,0.2188-0.9092,0.3433-1.4272l0.2119-0.8828c0.7935-0.4316,1.5811-0.8633,2.3691-1.2949
	c0.7539-0.4131,1.5068-0.8257,2.2646-1.2383c0.0293,1.7393,0.1006,3.5898,0.2188,5.6543l0.0918,0.0107
	c0.7168-2.4287,0.8213-4.9868,0.9219-7.4609c0.0234-0.5698,0.0469-1.1572,0.0781-1.7363c0.459,1.0996,0.9043,2.2222,1.3359,3.3101
	c0.4805,1.2124,0.9775,2.4658,1.4961,3.6919l0.0898-0.0156c0.0215-0.4585,0.0439-0.917,0.0664-1.3755
	c0.2422-4.9434,0.4912-10.0552,0.0234-15.061h-0.0938c-0.0459,0.5068-0.0889,1.0146-0.1328,1.5225
	c-0.2236,2.6035-0.4541,5.293-1.0049,7.8926c-0.1338-0.5034-0.2529-1.0215-0.3691-1.5244c-0.4346-1.8794-0.8828-3.8228-2.1084-5.395
	l-0.0596-0.0762l-0.0234,0.0938c-0.0469,0.1909-0.1172,0.4692-0.1895,0.7534c-0.083,0.3247-0.167,0.6577-0.2217,0.8872
	c-0.0215,2.0488,0.0029,4.1074,0.0303,5.8545c-1.9141,1.1641-4.0015,2.2813-6.3374,2.6201c-0.085,0.23-0.21,0.5776-0.335,0.9248
	c-0.1226,0.3403-0.2446,0.6802-0.3296,0.9097c-2.2612,1.4419-4.3193,2.6387-6.2891,3.6567
	c-1.0078-2.2524-1.9746-4.6641-1.8555-7.2153c0.0117-2.9395-0.1602-5.9258-0.3267-8.8135
	c-0.251-4.3511-0.5103-8.8501-0.1445-13.2661c0.563-2.5347,1.6992-4.918,2.7979-7.2227c0.6519-1.3677,1.3257-2.7817,1.8735-4.2129
	c0.5386-0.2495,4.7627-3.0474,4.7627-3.0474l-2.5137-0.1538c-4.0562-0.5381-7.4204-2.2856-9.73-5.0537l-0.0488-0.0586
	l-0.0303,0.0698c-1.332,3.0732-4.1006,4.897-6.7773,6.6606c-0.6396,0.4214-1.3008,0.8569-1.9263,1.2998
	c-5.1978,3.5645-9.8911,6.7671-14.6992,9.8687l-0.0518,0.0337l0.0459,0.041c2.0557,1.8364,4.1968,3.627,6.3652,5.3208
	c-1.5845,4.1851-3.4307,8.3447-5.2163,12.3677l-0.4839,1.0903l0.1318-0.0845c5.5186-3.5488,11.3262-7.4507,18.8276-12.6484
	c0.2012-0.1133,0.4077-0.2485,0.6074-0.3799c0.563-0.3696,1.145-0.7524,1.7666-0.7524c0.2544,0,0.4961,0.0625,0.7378,0.1909
	c0.2583,3.2568,0.3315,6.5806,0.4028,9.7944c0.0796,3.6064,0.1621,7.3354,0.5059,10.9941c0.3862,2.1948-1.1162,3.7598-2.5693,5.2734
	c-0.4487,0.4673-0.873,0.9087-1.2441,1.3687c-1.6074-0.207-3.2046-0.4141-4.8022-0.6211l0.0005-0.0488
	c0.0483-2.6206,0.0986-5.3301,0.0884-8.0005l-0.0938-0.0039c-0.1714,2.1763-0.312,4.3926-0.4478,6.5361l-0.0894,1.4087
	c-3.5254-0.2085-7.0063-0.4731-11.1416-0.8057l-1.8218-2.3687l-0.0376,0.043c-0.4351,0.4941-1.2993,1.4766-1.7446,1.9819
	l-0.6318-0.0552c-4.2695-0.373-8.6836-0.7588-13.0024-1.3271l-0.1191-6.1499l-0.001-0.04l-0.0396-0.0054
	c-3.7275-0.5063-6.8306-0.7666-9.7651-0.8203l-0.0757-0.0015l0.0322,0.0684c1.0054,2.1304,3.248,2.1997,5.417,2.2666
	c0.9565,0.0298,1.8608,0.0576,2.668,0.25c-0.0098,1.5024-0.0098,3.0342-0.0098,4.5166c-2.001,0.0225-3.687,0.0547-5.3955,0.1396
	l-0.0923,0.0049l0.0581,0.0718c1.1411,1.4053,2.8379,1.627,4.4785,1.8413c0.3457,0.0454,0.7036,0.0923,1.0469,0.1494
	c0.1274,0.8472,0.229,1.7148,0.3271,2.5537c0.0747,0.6367,0.1519,1.2944,0.2397,1.9414c-2.3042-0.2954-5.0186-0.5947-7.7358-0.5947
	c-0.1362,0-0.2734,0.001-0.4102,0.0024l-0.0972,0.001l0.061,0.0752c1.6592,2.0464,4.2285,2.1826,6.7129,2.3145
	c1.1196,0.0591,2.2773,0.1206,3.313,0.3613l0.0625,0.0146l-0.0049-0.0635c-0.082-1.0518-0.1689-2.1035-0.2554-3.1538
	c-0.0815-0.9868-0.1631-1.9727-0.2402-2.9561c1.6943,0.2983,3.5034,0.3555,5.2539,0.4102c3.5449,0.1118,7.21,0.2271,10.1772,2.3315
	l0.0234,0.0166l0.0259-0.0132c0.4248-0.2227,0.8496-0.4478,1.2749-0.6729c0.4106-0.2178,0.8213-0.4355,1.2324-0.6504
	c3.4497,0.3711,7.0161,0.7549,10.5234,1.1646c-0.0195,2.0674-0.0396,4.2056-0.0688,6.313l-0.0957,0.0718
	c-1.4531,1.085-2.9551,2.2061-4.4424,3.3008c-0.0293-1.5234-0.0845-3.1143-0.1685-4.8608l-0.0049-0.0972l-0.0728,0.0645
	c-0.8452,0.7432-1.5151,1.623-1.9922,2.6147l-0.0132,0.0278l0.02,0.0229c1.5303,1.7866,1.0771,4.0889,0.6387,6.3149
	c-0.4888,2.4839-0.9941,5.0522,1.3896,6.7627l0.0728,0.0522l0.0015-0.0898c0.0103-0.7295,0.0508-2.2085,0.0645-2.9434
	c-0.6094-1.0986-0.9634-2.2603-1.0532-3.4536c1.0161-1.4038,2.4658-2.4043,3.8677-3.3716c0.4126-0.2852,0.8389-0.5791,1.2471-0.8789
	c-0.0137,3.6968-0.0645,7.4541-0.1133,11.0884c-0.0625,4.624-0.1274,9.4058-0.1162,14.1084v0.0933l0.0752-0.0557
	c1.7646-1.3213,3.5776-2.4722,5.3906-3.4219c-0.9568,1.6669-1.7647,3.4205-2.3834,5.2408
	c-0.4426,1.3023-0.7418,2.7286-1.0678,4.0588c-0.3096,1.2634,0.0833,2.6522,0.8287,3.6911c0.9098,1.268,2.192,1.9446,3.5012,2.7119
	c0.6052,0.3547,2.8076,1.7166,1.7644,2.5825c-0.293,0.2432-0.606,0.3662-0.9302,0.3662c-1.0474,0-3.1643,2.4096-3.1033,4.8508
	c0.027,1.0802,0.1574,2.1416,0.3528,3.2032c0.1632,0.8863,0.8243,1.9857,0.7155,2.8641c-0.0384,0.3096-0.1933,0.5915-0.3564,0.8574
	c-1.203,1.9607-3.0119,3.3516-4.9169,4.5846c-1.1405,0.7382-2.0078,1.0453-2.611,2.3269c-0.6242,1.3263-0.8752,2.8112-0.8776,4.2695
	c-0.0018,1.0423,0.1177,2.08,0.2923,3.1063c0.0815,0.4794,0.8143,2.5535,0.5538,2.9028c-0.2577,0.3457-2.1668,0.4077-2.6258,0.5036
	c-0.9827,0.2052-1.9589,0.441-2.9276,0.7043c-1.9747,0.5367-3.9177,1.188-5.8237,1.9322c-1.9103,0.7459-4.0497,1.489-5.7887,2.5876
	c-5.7979,3.6626-11.0684,8.166-15.665,13.3838c-4.5913,5.2114-8.397,11.0073-11.3081,17.2188
	c-4.3599,6.1572-7.7573,11.8853-10.3867,17.5107c-3.064,6.5549-5.0876,13.071-6.0164,19.3689
	c-1.2407,0.3347-2.9226,0.7981-3.6389,2.2825c-1.5049,2.4302-3.1133,4.853-4.6689,7.1963
	c-2.3813,3.5879-4.8438,7.2979-6.9922,11.1157l-0.0142,0.0254l0.0161,0.0239c0.3623,0.5366,0.7271,1.0874,1.0796,1.6196
	c0.2163,0.3262,0.4326,0.6533,0.6758,0.999c0.5469,0.168,1.1104,0.3252,1.6558,0.4766c1.6626,0.4629,3.3813,0.9414,4.9023,1.8174
	c2.0791,1.3838,2.8633,3.7949,3.6216,6.1265c0.1064,0.3271,0.2119,0.6514,0.3438,0.9966c1.0051,0.4878,1.9731,0.9784,2.8745,1.457
	c0.1453,3.2991,0.2068,6.6577,0.2656,9.9058c0.0139,0.7562,0.0277,1.512,0.0425,2.2676c-1.3949-0.0037-2.8326-0.0627-4.2246-0.1206
	c-1.4526-0.0605-2.9546-0.123-4.4277-0.123c-3.105,0-7.1411,0.25-10.8467,2.2373c-0.313,3.8188-2.7676,6.6865-5.1411,9.46
	c-1.0244,1.1968-2.0835,2.4346-2.9473,3.7227c-1.1421,1.2866-2.1729,2.7432-3.1689,4.1514c-2.1226,3-4.3174,6.1025-7.7612,7.8096
	c-0.9409,4-3.5317,7.1924-6.0371,10.2803c-1.3984,1.7236-2.8442,3.5054-3.9941,5.4131c-0.6377-0.0103-1.8618-0.0298-2.4829-0.0396
	l-0.0386-0.0005l-0.0078,0.0381c-0.084,0.4072-0.1689,0.8149-0.2539,1.2227c-0.1929,0.9277-0.3926,1.8867-0.5801,2.8364
	c-1.2622,0.2461-2.5454,0.4839-3.6689,0.6934c-0.4502-0.0103-1.3501-0.0303-1.8003-0.04l-0.042-0.001l-0.0054,0.0415
	c-0.0767,0.5845-0.2471,1.7329-0.3384,2.3501l-0.0059,0.04c-0.8193,0.0156-1.6387,0.0327-2.4575,0.0498
	c-1.7183,0.0356-3.4951,0.0723-5.2783,0.1167c-2.0596,2.5991-4.1309,5.4214-4.8643,8.8374
	c-0.7905,0.3901-1.6069,0.7935-2.4102,1.2002l-0.0327,0.0166l0.1367,0.6035c0.1621,0.7173,0.3848,1.6992,0.501,2.2417l0.0063,0.0288
	l0.0283,0.0068c0.6626,0.167,1.3335,0.3462,1.9819,0.519c0.354,0.0942,0.7085,0.189,1.0645,0.2822
	c0.1738,3.3486,0.4727,6.7471,0.7617,10.0337c0.1265,1.4434,0.2578,2.9355,0.3765,4.4033l0.0039,0.0444l0.4458-0.0151
	c4.1646-0.1421,8.4712-0.2896,12.7119-0.4248c0.0776,2.1157,0.1582,4.3018,0.188,6.4727c-0.147,0.3379-0.3423,0.687-0.5488,1.0571
	c-0.7305,1.3086-1.5586,2.792-0.271,4.0703c1.7627,2.3032,1.7197,5.2017,1.6782,8.0049c-0.0132,0.8975-0.0269,1.8252,0.0215,2.707
	c-0.0693,0.1416-0.1392,0.2832-0.209,0.4243c-0.5576,1.1304-1.1343,2.2993-1.4102,3.605c0.6436,0.7778,1.3506,1.5688,2.1011,2.3511
	c0.2573,3.0732,0.3877,6.3184,0.3882,9.647c-0.2246,0.4082-0.4507,0.8149-0.6768,1.2217c-0.5283,0.9502-1.0747,1.9326-1.5874,2.9087
	l-0.019,0.0366l0.0337,0.0239c0.9189,0.645,1.8628,1.3008,2.7759,1.9351l0.0454,0.0317c0.105,1.9585,0.2427,4.2827,0.4683,6.6891
	c0.1901,2.6285-0.8805,5.0374-1.916,7.3666l-0.0151,0.0342l0.0298,0.0225c0.2417,0.1807,0.4834,0.3618,0.7256,0.5425
	c0.5864,0.438,1.1924,0.8911,1.7852,1.3423c-0.0298,0.6875,0.022,1.4121,0.0723,2.1133c0.1094,1.52,0.2222,3.0923-0.4653,4.4609
	c-0.7847,1.3496-2.1675,1.5352-3.5449,1.5352c-0.3125,0-0.6323-0.0098-0.9414-0.0195c-0.3032-0.0093-0.6167-0.019-0.917-0.019
	c-0.3877,0-0.6997,0.0161-0.9819,0.0503l-0.0444,0.0054l0.0034,0.0449c0.2012,2.4722-0.3091,4.9058-0.8018,7.2593
	c-0.5132,2.4473-1.0435,4.9785-0.7783,7.5591c0.459,10.8247,0.6323,20.5649,0.5303,29.7773l-0.0005,0.0459l0.0459,0.0015
	c1.7158,0.0547,3.4316,0.1138,5.1475,0.1729c4.7729,0.1636,9.7085,0.333,14.5625,0.4072c0.1587,0.0044,0.3174,0.0088,0.4766,0.0132
	c1.8916,0.0498,3.8472,0.1016,5.6094,0.8799c1.8423,1.5854,3.6304,3.2998,5.3599,4.957c3.7832,3.6255,7.6943,7.3745,12.4072,10.0054
	c1.6387,4.7549,5.5088,8.5435,10.623,10.4009c0.1436,2.6592,1.6768,4.9067,4.5581,6.6841
	c5.2532,3.2406-1.7385,59.9042-2.0386,67.9805c-0.9493,25.5506-1.3657,51.1329-2.0474,76.6922
	c-1.5526,58.2147-1.0262,116.9232-4.5737,175.0172c-0.3447,5.6582-0.4526,11.4189-0.5576,16.9902
	c-0.2065,10.9597-0.1052,21.9182-0.1915,32.8868c-1.4835,38.3407-2.3309,76.7339-2.3309,115.1045
	c-0.0313,2.373,0.334,4.7539,0.6792,6.7991c-2.6479,11.048-1.1277,23.1936-0.7178,34.4016
	c-0.8076,39.8306-1.7261,79.6349-0.5852,119.4753c0.5527,66.4199,1.1053,132.8401,1.658,199.26
	c0.0752,9.0442,0.1024,18.3572-3.2612,26.7529s-10.995,15.7479-20.0374,15.9434c-0.0989,0.0022-0.4614,16.2454-2.6215,17.613
	c-1.963,1.2429-8.8558-0.0042-11.1735-0.0042H17.9966c-0.0217,20.4485-0.1411,130.5922-0.2061,130.627
	C17.1045,1560.1885,18,1584,18,1584h16.519l0.0107,0.0469c0,0,164.0806,0,164.0811-0.0029l124.0884,0.0029l-0.011-0.0469H334.5
	v-137.3591C334.6641,1446.1687,334.7246,1445.6459,334.6064,1445.0381z M300.1221,403.5981
	c-0.4648,0.0322-0.9297,0.0645-1.2627,0.0894c0.6045-1.1768,1.4434-2.0645,2.4961-2.6401l0.0059,0.1689
	c0.0205,0.6826,0.0518,1.7061,0.0605,2.29C301.0879,403.5313,300.6045,403.5649,300.1221,403.5981z M296.6934,369.1514
	c-0.3633,0.3066-0.708,0.5981-1.0439,0.8916c-0.2139-2.7915-0.3896-6.0239,0.1514-9.1968c1.1191-0.3564,2.293-0.4058,3.3965-0.4058
	c0.2715,0,0.543,0.0034,0.8145,0.0063s0.543,0.0063,0.8135,0.0063c0.3301,0,0.6074-0.0049,0.8662-0.0146
	C302.4131,364.3193,299.375,366.8857,296.6934,369.1514z M301.5537,374.4868c-2.0459-0.2588-3.7432-0.499-5.333-0.7544
	l0.5762-1.8945c0.2432-0.0713,0.5967-0.1792,0.9482-0.2866c0.3564-0.1089,0.7109-0.2173,0.9473-0.2861l0.0176-0.0049l0.0098-0.0151
	c0.8838-1.3965,1.8057-2.5112,2.8174-3.4048C301.6133,370.0972,301.5908,372.3662,301.5537,374.4868z M295.9629,357.3384
	c1.0078-1.9565,2.6035-3.5107,4.1475-5.0146c0.4102-0.3994,0.834-0.812,1.2402-1.2266c0.166,2.248,0.2246,4.5142,0.2617,6.6328
	C299.541,357.6011,297.6914,357.4731,295.9629,357.3384z M295.7744,311.0063c1.0674,0.2046,2.1523,0.4312,3.2031,0.6504
	l0.0576,0.0122l0.0146-0.0059c0.3252-0.1465,0.8232-0.3789,1.3057-0.6035c0.3447-0.1611,0.6777-0.3164,0.9229-0.4292
	c0.1016,1.3252,0.1758,2.7827,0.2334,4.5786c-1.8037,1.5479-3.7246,3.1865-5.6631,4.7397
	C295.6104,317.1143,295.5859,314.1875,295.7744,311.0063z M301.6133,324.8096c-2.1592-0.146-3.959-0.2803-5.6543-0.4209
	c0.6807-1.5171,1.9473-2.5986,3.1729-3.644c0.751-0.6406,1.5254-1.3022,2.1641-2.0605
	C301.5078,320.5601,301.6113,322.5659,301.6133,324.8096z M295.7119,327.6753c0.9639-0.0298,1.9268-0.0615,2.8896-0.0938
	c0.958-0.0317,1.916-0.064,2.873-0.0933c0.04,0.9478,0.1182,2.7739,0.1572,3.7148l-0.2939,0.3237
	c-1.75,1.9292-3.5596,3.9233-5.748,5.4194C295.333,334.0107,295.374,330.8921,295.7119,327.6753z M301.5127,341.3809l-5.418-0.2944
	c0.9102-2.6196,3.127-4.3589,5.2725-6.041l0.1279-0.1006C301.543,337.1182,301.5322,339.3203,301.5127,341.3809z M295.5039,347.8057
	c0.0361-1.1416,0.0742-2.3218,0.1016-3.4839c2.3184-0.2505,4.2256-0.4448,5.9961-0.6108c0.7686,4.1914-2.7031,7.1592-6.2334,9.5112
	C295.3867,351.4155,295.4463,349.5811,295.5039,347.8057z M298.0645,377.23c1.2793,0,2.4678,0.0181,3.6338,0.0557
	c0.3945,3.5815-2.5361,5.9048-5.1221,7.9556c-0.3926,0.3105-0.7637,0.605-1.1221,0.9019c-0.0977-2.9634-0.1074-5.9731-0.1172-8.8872
	C296.2959,377.2383,297.1895,377.23,298.0645,377.23z M301.4629,390.73c-1.957-0.125-3.7275-0.2393-5.5117-0.3726
	c0.6963-2.3452,2.5986-3.9243,4.4395-5.4517c0.3564-0.2954,0.7236-0.6001,1.0732-0.9038
	C301.4941,386.3892,301.4805,388.7373,301.4629,390.73z M295.3926,394.0503c0.042-0.1714,0.084-0.3423,0.125-0.5137
	c1.4063-0.0137,2.8594-0.0278,4.2979-0.0278c0.625,0,1.1992,0.0024,1.7559,0.0078c0.4971,2.7866-1.2637,4.4995-3.1279,6.3125
	c-0.9492,0.9224-1.9297,1.876-2.5801,2.9819c-1.3818-0.0991-1.3281-1.3281-1.2754-2.5161c0.0195-0.4517,0.0381-0.8784-0.0215-1.2246
	C294.585,397.3657,294.9951,395.6802,295.3926,394.0503z M38.4263,345.3896c1.2192-1.4741,2.354-3.0596,3.4512-4.5928
	c1.6821-2.3511,3.4209-4.7808,5.502-6.8604c0.1475,2.4976,0.1953,5.0439,0.2412,7.5068c0.0269,1.4331,0.0547,2.9141,0.1021,4.3706
	c-1.0166,1.2363-1.9736,2.5571-2.8989,3.834c-1.5063,2.0786-3.0596,4.2212-4.9155,6.0669c0.3418-0.5386,0.4541-1.104,0.334-1.6865
	c-0.2739-1.3296-1.6685-2.3403-2.7935-2.8086c0.0317-0.5166,0.0098-1.0659-0.0117-1.5977
	C37.3765,348.1099,37.314,346.5459,38.4263,345.3896z M37.0532,364.1318c1.6699-1.7949,3.0879-3.7036,4.2144-5.6753
	c1.1675-0.0107,2.1465-0.0195,3.165-0.0195c0.8447,3.8779,1.2886,8.2344-1.7651,11.1992l-0.0098,0.0142
	c-0.8394,1.8379-2.5854,2.0859-4.1831,2.0859c-0.3735,0-0.7534-0.0156-1.0806-0.0313c-0.0527-0.7202-0.1436-1.4556-0.231-2.1675
	C36.9438,367.7583,36.7173,365.9185,37.0532,364.1318z M41.4702,375.4336c1.0737-0.1455,2.1587-0.2153,3.2383-0.207
	c0.3228,2.6338,0.5161,5.2534,0.5742,7.7881c-0.9551,1.2905-1.9067,2.6172-2.8276,3.8999l-0.6089,0.8486
	c-1.5591,0-3.1094,0.0088-4.8247,0.0195c-0.249-2.1475-0.458-4.2588-0.6128-5.8657C38.562,379.707,40.248,377.7559,41.4702,375.4336
	z M36.7139,392.0327c0.0347-0.8081,0.7471-1.833,1.499-1.833c0.4004,0,0.7476,0.2993,1.0044,0.8667
	c-0.1807,0.292-0.4531,0.7285-0.7197,1.1558c-0.2339,0.374-0.4629,0.7417-0.6221,0.9985
	C36.8257,393.1187,36.6968,392.4346,36.7139,392.0327z M37.7388,401.5283c-0.25-1.7485-0.5083-3.5562,0.71-4.9917
	c0.1758-0.2554,0.3516-0.5132,0.5278-0.772c1.6118-2.3672,3.2778-4.8145,5.8857-6.1333c0.5227,3.8054,0.6472,7.1432,0.3816,10.2024
	c-0.2593,0.3269-0.5103,0.6749-0.7527,1.012c-0.5879,0.8174-1.1963,1.6631-1.9917,2.3008
	c-1.0605,0.2153-2.1592,0.3057-3.2217,0.3931c-0.4376,0.0359-0.8896,0.074-1.334,0.1196
	C37.9417,402.9681,37.8403,402.2368,37.7388,401.5283z M38.4482,419.2612c-0.1899-2.9937-0.3867-6.0894,1.7959-8.3989l0.0293-0.0313
	l-0.0007-0.0007c0.4001-0.4094,0.7633-0.9628,1.1467-1.55c0.8066-1.2349,1.6406-2.5122,2.8989-2.5122
	c0.2183,0,0.4463,0.0396,0.6792,0.1172l0.0283,0.2104c0.5571,4.1357,1.188,8.8218-1.6279,12.3271
	c-1.2505-0.0298-2.521-0.0435-3.75-0.0562c-0.3981-0.0042-0.7957-0.0085-1.1937-0.0132L38.4482,419.2612z M38.6138,423.8564
	c-0.1636-0.5576-0.0854-1.3203,0.4761-1.6802c0.2407-0.1997,0.4761-0.3008,0.7002-0.3008c0.4678,0,0.7661,0.4336,0.8892,0.8394
	c0.167,0.5488,0.0957,1.3076-0.4604,1.6807c-0.2437,0.2197-0.4839,0.3315-0.7139,0.3315
	C39.1182,424.7271,38.7681,424.3853,38.6138,423.8564z M45.4565,429.1396c-1.4272,2.6997-2.9023,5.4907-5.7236,6.8818
	c-0.1581-0.7004-0.4546-1.9734-0.606-2.6067c-0.3821-4.5352,2.699-8.2339,6.1069-11.5544c0.2681,2.5029,0.4552,4.5996,0.5884,6.5896
	C45.7004,428.6779,45.5785,428.9082,45.4565,429.1396z M46.7739,354.1343c-0.4385,0.0444-0.8638,0.0879-1.1587,0.1191
	l-0.0332,0.0034l-0.0073,0.0322c-0.3164,1.3433-1.0698,1.9961-2.3032,1.9956c-0.1318,0-0.2705-0.0078-0.4131-0.0229
	c1.3345-2.146,2.8296-4.2339,4.4458-6.209c0.4688,1.2725,0.7661,2.5957,0.8853,3.9355
	C47.8296,354.0269,47.2925,354.0815,46.7739,354.1343z M52.5156,327.0469c4.6836-6.3799,8.9482-12.0996,13.6792-17.4453
	c0.0151,1.0444,0.0601,2.1108,0.103,3.1431c0.1265,3.0059,0.2568,6.1138-0.3218,9.0962
	c-4.4341,6.0356-8.9063,11.7837-13.2949,17.0859c-0.0308-0.6396-0.0649-1.2798-0.0991-1.9204
	C52.4077,333.7388,52.2271,330.3594,52.5156,327.0469z M66.3936,354.9541c-0.1387,0.1851-0.3418,0.4595-0.5435,0.731
	c-0.1895,0.2559-0.377,0.5093-0.5078,0.6841c-1,0.2681-2.1187,0.3984-3.4185,0.3984c0,0,0,0-0.0005,0
	c-1.1919,0-2.4165-0.1074-3.6011-0.2109c-0.9888-0.0864-2.0098-0.1758-2.999-0.2012c1.6084-1.7915,3.0532-3.7725,4.4512-5.689
	c1.9585-2.6851,3.9829-5.4609,6.48-7.7422c0.0186,1.2065,0.0508,2.4307,0.082,3.6157
	C66.4082,349.2979,66.4829,352.1494,66.3936,354.9541z M52.6821,345.3223c0.0024-0.7188,0.0049-1.437,0.0049-2.1558
	c1.7524-2.1377,3.4375-4.3896,5.0674-6.5679c2.6235-3.5063,5.3354-7.1304,8.395-10.3672c0.1489,2.6641,0.1631,5.3765,0.1772,8.0005
	c0.0068,1.2852,0.0137,2.6138,0.0361,3.9214c-2.0337,2.4341-3.9702,5.0156-5.8433,7.5122
	c-2.4116,3.2148-4.9048,6.5381-7.6304,9.5806C52.6587,351.9375,52.6704,348.5752,52.6821,345.3223z M53.0645,365.3101
	c-0.1001-1.7861-0.2041-3.6328-0.2271-5.4507c0.8867-0.8472,2.0596-1.2422,3.6899-1.2422c1.0732,0,2.2168,0.1699,3.3228,0.3345
	c1.0938,0.1626,2.127,0.3159,3.0869,0.3159h0.0093l-0.5444,0.7319c-2.8989,3.8979-5.8955,7.9277-9.1045,11.6924
	C53.3027,369.5566,53.1816,367.3984,53.0645,365.3101z M53.5,381.1489c-0.0024-1.8862-0.0049-3.8359-0.1396-5.7495
	c3.5142,0.165,6.5967,0.2461,9.4185,0.2476c-2.5239,4.396-5.8462,8.3564-9.0625,12.1875
	C53.5054,385.6108,53.5029,383.3433,53.5,381.1489z M53.8745,398.8369c-0.2007-2.7803-0.4082-5.6548,0.8237-8.1885
	c2.1025,0.1074,4.2446,0.1484,6.3169,0.188c0.7832,0.0146,1.5664,0.0298,2.3491,0.0483c-0.4858,0.7373-0.9746,1.4971-1.4473,2.2324
	c-2.3154,3.6021-4.7095,7.3262-7.9312,10.1621C54.0903,401.8271,53.981,400.3076,53.8745,398.8369z M59.7676,410.6699
	c-1.5354,2.3954-3.1246,4.8696-5.4989,6.5551c0.0648-1.0968,0.0109-2.2473-0.045-3.3627c-0.1221-2.4194-0.2476-4.9214,0.8491-7.083
	c0.8389-0.2554,1.7256-0.3799,2.709-0.3799c1.5299,0,3.0593,0.3062,4.4885,0.6404
	C61.3643,408.1836,60.5519,409.4462,59.7676,410.6699z M66.3521,402.2979c-1.1606,1.8379-2.9854,2.0859-4.6191,2.0859h-0.0005
	c-0.6543,0-1.333-0.0464-1.9888-0.0918c-0.6367-0.0435-1.2949-0.0889-1.9116-0.0889c-0.2061,0-0.396,0.0049-0.5771,0.0151
	c1.2939-2.2012,2.8486-4.2749,4.353-6.2813c1.2583-1.6787,2.5591-3.4136,3.7026-5.2163c0.2778,0.2383,0.7012,0.6113,1.0771,0.9424
	c0.1777,0.1567,0.3423,0.3013,0.4697,0.4131C66.1118,397.0044,66.1948,400.0054,66.3521,402.2979z M65.5039,388.4653
	c-0.8989,0.0996-1.876,0.1479-2.9854,0.1479c0,0,0,0-0.0005,0c-1.1304,0-2.2813-0.0498-3.3936-0.0977
	c-0.707-0.0308-1.437-0.062-2.1543-0.0806c1.792-3.1113,4.0796-5.9624,6.292-8.7202c0.9619-1.1992,1.9565-2.4385,2.8975-3.6836
	c0.6904,1.5566,0.5332,3.2324,0.3809,4.8545c-0.1626,1.7329-0.3311,3.5244,0.5156,5.2021
	C66.5278,386.9722,66.0195,387.7505,65.5039,388.4653z M66.0688,372.4248c-1.3179,0.063-2.6938,0.0947-4.0898,0.0947
	c-1.8438,0-3.729-0.0527-5.7603-0.1616c0.5806-0.7915,1.1636-1.6035,1.728-2.3892c2.499-3.481,5.0825-7.0796,8.2617-10.0361
	c0.042,0.8374,0.0557,1.6934,0.0688,2.5225c0.0391,2.4839,0.0796,5.0522,0.8926,7.4727
	C66.8887,370.5601,66.3521,371.7769,66.0688,372.4248z M79.1641,352.1797c2.2676,0,4.5215,0.0503,6.8232,0.1064
	c0.1699,1.7671,0.2896,3.5396,0.3931,5.1958c-1.2212-0.0249-2.4429-0.0542-3.6646-0.084c-2.9761-0.0723-6.0532-0.147-9.082-0.147
	c-0.6855,0-1.3584,0.0039-2.0005,0.0117c-0.125-1.5708-0.2339-3.188-0.3242-4.8096
	C73.6748,352.2666,76.1724,352.1797,79.1641,352.1797z M71.396,336.1694c2.3696-0.4136,4.8911-0.5986,8.168-0.5986
	c1.5889,0,3.2051,0.0435,4.7681,0.0854c0.6543,0.0176,1.3081,0.0352,1.9609,0.0498c-0.0005,2.0781-0.0244,4.1929-0.0474,6.2383
	c-0.0288,2.561-0.0586,5.2095-0.043,7.8164c-4.2065-0.229-7.6074-0.3354-10.7002-0.3354c-1.4009,0-2.772,0.022-4.0771,0.0664
	C71.2979,345.0742,71.2881,340.5928,71.396,336.1694z M71.4678,311.7891c0.0186-3.0225,0.0376-6.147,0.1279-9.2197
	c1.1338-0.1943,2.3325-0.2847,3.7676-0.2847c1.1865,0,2.394,0.0635,3.562,0.125c1.1689,0.0615,2.3779,0.125,3.5669,0.125
	c1.334,0,2.502-0.082,3.5679-0.251c0.4126,3.0024,0.333,6.0757,0.2559,9.0479c-0.0439,1.6851-0.0894,3.4272-0.0444,5.1387
	c-2.3745-0.1431-4.9253-0.2744-7.5015-0.2744c-2.7075,0-5.1104,0.1475-7.3428,0.4507
	C71.4478,315.0254,71.458,313.3804,71.4678,311.7891z M71.3979,319.5859c2.8687-0.731,5.7822-0.8247,8.0024-0.8247
	c1.165,0,2.3516,0.0293,3.499,0.0581c1.082,0.0269,2.2007,0.0547,3.2974,0.0576c0.2046,2.8452,0.1714,5.7461,0.1387,8.5518
	c-0.022,1.8955-0.0444,3.8555,0.0063,5.7827c-2.6543-0.0732-4.9878-0.1089-7.1328-0.1089c-2.8472,0-5.4321,0.0615-7.9009,0.188
	C71.4209,328.9609,71.5098,324.3066,71.3979,319.5859z M85.8047,396.1636c-5.3066,0-9.9971-0.2178-14.3369-0.6655
	c0.0293-1.3984,0.0493-2.8145,0.0684-4.1841l0.0005-0.0073c1.9097,0.0005,3.8501,0.0298,5.7275,0.0576
	c1.8931,0.0283,3.8501,0.0576,5.7759,0.0576c1.0171,0,1.9458-0.0078,2.8369-0.0239c0.1377,1.5913,0.2173,3.2041,0.2939,4.7651
	L85.8047,396.1636z M82.771,383.0273c-1.9087-0.1431-3.8823-0.291-5.8203-0.291c-1.9946,0-3.7441,0.1592-5.3462,0.4863
	c-0.1045-2.4824-0.1475-5.0659-0.1279-7.6787c1.4019-0.0942,2.9038-0.1382,4.7227-0.1382c1.2393,0,2.4995,0.0205,3.7183,0.04
	c1.2192,0.0195,2.48,0.04,3.7202,0.04c0.834,0,1.5864-0.0088,2.2993-0.0278c0.1836,2.3135,0.2432,4.7925,0.187,7.7925
	C85.0073,383.1948,83.8711,383.1099,82.771,383.0273z M85.8623,389.3228c-1.0396-0.0068-2.0962-0.0234-3.1182-0.0396
	c-1.3652-0.0215-2.7769-0.0435-4.1646-0.0435c-2.4854,0-4.5098,0.0732-6.3657,0.2305c-0.3691-1.2139-0.2056-2.4712-0.0469-3.687
	l0.0244-0.1885c1.6729-0.0796,3.4272-0.1187,5.3623-0.1187c2.8447,0,5.752,0.0874,8.2598,0.1694
	C85.8237,386.8643,85.8433,388.1118,85.8623,389.3228z M82.7456,373.2129c-0.7119,0-1.436,0.0078-2.1362,0.0156
	c-0.6997,0.0073-1.4229,0.0151-2.1333,0.0151c-2.1343,0-4.645-0.0645-7.0986-0.542l0.0591-3.2114
	c2.7861-0.4434,5.4551-0.6685,7.9331-0.6685c2.3677,0,4.6475,0.2046,6.7769,0.6079c0.0942,1.0508,0.106,2.1333,0.1172,3.1802
	c0.0024,0.2334,0.0054,0.4668,0.0083,0.6997C85.2524,373.2437,84.1299,373.2129,82.7456,373.2129z M78.4248,366.2734
	c-2.6133,0-4.9453,0.1353-7.1274,0.4136c0.0264-2.1885,0.0645-4.7686,0.1479-7.3765c2.8994,0.229,5.8516,0.2627,8.7075,0.2959
	c1.9326,0.022,3.9307,0.0454,5.8926,0.1284c0.0396,0.7681,0.0786,1.5361,0.1172,2.3042c0.0752,1.4868,0.1528,3.0234,0.2378,4.5405
	C83.8691,366.4199,81.1528,366.2734,78.4248,366.2734z M117.603,314.2954l0.1665,0.0605c1.0337,0.3746,2.1023,0.7622,3.1172,1.2546
	l0.0005,0.0002c0.3201,0.1801,0.9194,0.5225,1.238,0.7107c-0.2612,1.2285-1.1466,1.3982-1.9817,1.3982
	c-0.3687,0-0.7646-0.0381-1.1475-0.0752c-0.377-0.0366-0.7666-0.0742-1.1235-0.0742c-0.1709,0-0.3232,0.0083-0.4629,0.0259
	C117.4688,316.4736,117.5366,315.3672,117.603,314.2954z M115.4604,350.812c-0.4965-0.0095-1.4049-0.0281-1.9033-0.0381
	c0.0195-1.8086,0.0034-3.644-0.0122-5.4194c-0.0229-2.5916-0.0464-5.2712,0.0417-7.9058c0.2332-0.2617,0.6714-0.7438,0.9353-1.0303
	c1.0962,3.0527,1.0059,6.3311,0.918,9.5024C115.3955,347.5319,115.3502,349.1965,115.4604,350.812z M115.2343,329.728
	c-0.2294-0.0247-0.5421-0.0583-0.8636-0.0933c-0.3325-0.0356-0.6665-0.0718-0.9038-0.0967c0.0049-1.541,0.0049-3.0796,0.0049-4.6167
	c0-1.5347,0-3.0679,0.0054-4.6016c0.4624,0.0308,1.2974,0.0947,1.7373,0.1333c0.0396,1.1895,0.0693,2.3965,0.0889,3.5879v0.0001
	C115.3215,325.7863,115.2988,327.6472,115.2343,329.728z M115.1641,313.4517c0.0303,1.3896,0.0688,2.7222,0.1172,4.0703
	c-0.4766-0.0098-1.3291-0.0278-1.7954-0.0381c-0.0142-0.6968-0.0259-1.3916-0.0381-2.0859c-0.0122-0.7271-0.0249-1.4541-0.04-2.1831
	C113.8296,313.2773,114.5981,313.3789,115.1641,313.4517z M104.3569,316.9097c-0.0295-2.3832-0.0586-4.8462,0.0085-7.287
	c1.8751,0.5581,3.8632,1.1818,6.2493,1.9618c0.0869,1.7124,0.1279,3.5566,0.1284,5.7974c-2.1123-0.0688-4.2573-0.1284-6.3779-0.1777
	L104.3569,316.9097z M104.4165,336.4297c2.4805,0.1655,4.5698,0.3456,6.6769,0.6809c0.0094,4.429,0.0195,9.0073,0.0692,13.6023
	c-0.7808,0.0039-1.5625,0.0073-2.3447,0.0073c-1.7325,0-3.0686-0.0173-4.3218-0.0557
	C104.3721,346.097,104.345,341.3088,104.4165,336.4297z M107.4565,333.3003c0.3579-0.3311,1.1099-0.5703,1.7998-0.5703
	c0.5166,0,0.9292,0.1323,1.1611,0.3726c0.1548,0.1602,0.2305,0.3672,0.2261,0.6167c-0.3525,0.3218-1.0728,0.5454-1.7622,0.5454
	c-0.5342,0-0.96-0.1343-1.1987-0.3784C107.5317,333.7319,107.4561,333.5352,107.4565,333.3003z M104.5366,354.8104
	c2.4912,0.6332,4.3967,1.2118,6.1482,1.8669c-1.8406,1.0238-3.8889,1.4561-6.1775,1.8666L104.5366,354.8104z M110.877,367.4619
	c-0.4004-0.0093-0.9712-0.0205-1.5508-0.0317c-0.6699-0.0132-1.3508-0.0264-1.7942-0.0371c-0.1013-0.0132-0.2424-0.03-0.3875-0.0479
	c-0.1732-0.0206-0.3477-0.0417-0.4714-0.0583c-0.1334-0.3208-0.2679-0.6405-0.4026-0.9602
	c-0.4984-1.1838-1.0138-2.4082-1.4441-3.6335c-0.0161-0.4487-0.0452-1.2611-0.0662-1.8503l-0.0112-0.3159
	c2.1664,0.0122,4.3591,0.1235,6.4241,0.238C111.2026,363.1934,111.0317,365.6133,110.877,367.4619z M104.4263,331.7527
	c-0.0068-0.9551-0.0164-1.9109-0.0254-2.8665c-0.0291-3.0681-0.0592-6.2395-0.0144-9.3495c1.9492,0.4171,3.9568,0.649,5.8992,0.8724
	c0.2959,0.0342,0.5918,0.0679,0.8872,0.1025c-0.0322,3.5732-0.0259,6.79,0.02,9.8301
	C109.0522,330.7922,106.7529,331.2747,104.4263,331.7527z M115.1816,331.7202c-0.0088,0.8181-0.0181,1.6636-0.0186,2.4956
	c-0.6707,0.0428-1.386,0.103-2.2339,0.1868C113.6694,333.4963,114.4358,332.5955,115.1816,331.7202z M115.5835,367.499
	c-0.2544-0.0195-0.6138-0.0454-0.9731-0.0713c-0.3618-0.0259-0.7236-0.0518-0.9771-0.0713c-0.2471-3,0.332-5.9741,0.8916-8.8506
	c0.0835-0.4287,0.167-0.8579,0.248-1.2866C115.5127,360.7759,115.5996,364.4028,115.5835,367.499z M115.6328,355.5718
	c-0.2192,0.2852-0.5186,0.4355-0.8662,0.4355c-0.5249,0-1.0923-0.356-1.3501-0.8467c-0.2065-0.3936-0.1846-0.8066,0.0615-1.1631
	c0.2202-0.3105,0.5254-0.4751,0.8828-0.4751c0.5195,0,1.0835,0.3613,1.3413,0.8594
	C115.9126,354.7886,115.8877,355.2114,115.6328,355.5718z M120.802,355.3428l1.531,0.5601c0,0.2695,0.0024,0.6587,0.0054,1.0479
	c0.0023,0.3811,0.0044,0.7535,0.0046,1.0217l-0.156-0.032c-1.4043-0.2881-2.856-0.5854-4.2939-0.8696l-0.3184-2.979
	c1.0149,0.3982,2.0627,0.8094,3.1244,1.2126l0.0001,0.0007l0.0353,0.0129l0.0677,0.0256L120.802,355.3428z M122.3228,364.7363
	c-0.012,1.0754-0.0242,2.1874-0.0293,3.2822l-0.0264-0.0044v-0.0005c-1.5742-0.2505-3.1504-0.4561-4.4897-0.625
	c0.0347-2.9517,0.2725-5.5435,0.7271-7.9194c0.5557,0.2778,1.1152,0.5537,1.6758,0.8301c0.7126,0.3518,1.4495,0.7156,2.1726,1.0798
	C122.3479,362.4983,122.3353,363.636,122.3228,364.7363z M118.0063,331.4473l3.0903-0.4214l-0.1357-0.0679
	c-1.0796-0.5396-2.2002-1.0688-3.4243-1.6187c-0.0392-1.7151-0.0789-3.4873-0.1089-5.2319l-0.0601-3.5908h0.0513
	c1.5029-0.0098,3.0559-0.0199,4.5813-0.0492c0.3657,1.9254,0.1326,3.8802-0.0945,5.7714c-0.3032,2.5273-0.6167,5.1396,0.5308,7.6597
	C120.999,333.0977,119.5742,332.311,118.0063,331.4473z M156.9365,101.2666c-1.4702,1.7002-3.125,3.1157-4.9204,4.209
	c-0.7734-1.314-1.2559-2.8901-1.4731-4.8145C152.8652,100.8428,154.9585,101.041,156.9365,101.2666z M160.145,116.1802
	c-0.3198,0.5659-0.8555,1.5127-1.126,2.0073l-0.0088,0.0156l0.0044,0.0181c0.0649,0.2695,0.1587,0.6587,0.2559,1.0635
	c0.1245,0.5166,0.2549,1.0581,0.3398,1.4092c-1.0728,1.9814-1.0244,4.2139-0.9771,6.3726c0.0166,0.7559,0.0337,1.5371,0.0015,2.292
	c-3.0044,1.2744-5.6611,2.3267-8.1191,3.2153c-0.103-4.0591-0.0527-8.1855-0.0044-12.1768
	c0.0254-2.1128,0.0522-4.2979,0.0557-6.4492c-0.2275-4.4399,3.4165-7.4663,7.3994-10.0728
	c1.6074,2.4961,1.7529,5.4243,1.8936,8.2563c0.0649,1.3057,0.1323,2.6563,0.3413,3.9497L160.145,116.1802z M160.374,51.9883
	l-0.0068-1.0229c1.3213,0.8369,2.8716,1.8135,4.4238,2.7603c-0.2627,3.6821-1.7446,7.397-4.0728,10.2153
	C160.4243,59.9673,160.3984,55.9116,160.374,51.9883z M259.3672,368.4425c0.179-2.9485,0.4216-5.9323,0.657-8.8188
	c1.4851-0.1309,3.2393-0.2628,5.0286-0.2628c1.1099,0,2.125,0.0507,3.1035,0.1526c0.1282,1.8754,0.2676,3.7756,0.415,5.6492
	c-0.6191,0.6357-1.2334,1.3062-1.8271,1.9546c-2.0518,2.2393-4.1719,4.5537-6.9541,5.9404
	c-0.0732-0.7637-0.1406-1.5254-0.209-2.2856C259.511,369.9958,259.4419,369.2209,259.3672,368.4425z M268.6025,356.7407
	c-1.4512-0.0381-2.9512-0.0771-4.4131-0.1064c0.1133-0.4487,0.3242-1.2671,0.4424-1.6987c0.8047-0.7461,1.5498-1.5439,2.2139-2.3726
	c0.2285-0.0405,0.5635-0.0981,0.8965-0.1553c0.3027-0.0518,0.6035-0.1035,0.8223-0.1421c0.0205,1.5928,0.04,3.0332,0.0781,4.4761
	L268.6025,356.7407z M268.6934,373.3794c-1.7842-0.144-3.2705-0.3467-4.6924-0.8501c1.4463-1.626,2.9043-3.1533,4.3369-4.5425
	C268.5781,369.5854,268.6914,371.3037,268.6934,373.3794z M260.3105,385.2012c-0.1162-2.7871-0.2373-5.668-0.5605-8.4883
	c0.957-0.645,2.0635-0.9453,3.4775-0.9453c0.8818,0,1.7998,0.1152,2.6885,0.2266s1.8066,0.2266,2.6904,0.2266
	c0.0781,0,0.1563-0.0005,0.2344-0.0024c-0.085,1.8223-0.2012,3.7773-0.4639,5.7422c-1.4277,0.7964-2.4795,2.0679-3.4961,3.2974
	c-1.2236,1.4785-2.4893,3.0073-4.3975,3.6582C260.415,387.6777,260.3623,386.4189,260.3105,385.2012z M276.5923,373.5813
	c-1.5479-0.183-3.1294-0.2579-4.6587-0.3303l-0.3369-0.0161c-0.0098-2.7578,0.0107-5.5234,0.0605-8.2202
	c0.3521-0.5275,1.0267-1.5361,1.3701-2.0352c1.9198-2.2686,4.7572-3.0825,7.2881-3.5752c0.0508,0.1899,0.1025,0.3799,0.1533,0.5698
	c0.3347,1.2356,0.6802,2.5143,0.895,3.8018h-0.0005C281.8887,367.9055,279.1796,371.0024,276.5923,373.5813z M280.5908,351.2295
	c-0.0068,0.6538-0.0137,1.3081-0.0176,1.9619c-1.5918,1.7065-2.9893,3.0376-4.3926,4.186
	c-1.5371-0.5044-3.1162-0.8804-4.6943-1.1182c-0.0176-0.5835-0.0479-1.1807-0.0771-1.7583
	c-0.1104-2.1841-0.2246-4.4429,0.3135-6.5806c2.4707-3.3604,4.9893-4.9937,7.7021-4.9937c0.333,0,0.6729,0.0249,1.0117,0.0742
	C280.6504,345.7388,280.6201,348.5298,280.5908,351.2295z M271.5791,385.2168l0.0449,0.001l0.0029-0.0454
	c0.1055-1.9956,0.2246-4.2578,1.8066-5.8291l0.0479-0.0474l-0.0615-0.0283c-0.2451-0.1147-0.6094-0.2852-0.9746-0.4551
	c-0.3506-0.1631-0.7002-0.3262-0.9443-0.4404c0.0293-0.2393,0.0703-0.583,0.1104-0.9268c0.041-0.3462,0.082-0.6929,0.1113-0.9321
	c0.3549-0.142,1.0134-0.4111,1.3719-0.5605c0.8174,0.5262,1.505,0.9775,2.1593,1.4165l0.0225,0.0146l0.0234-0.0112
	c1.9219-0.8975,4.0303-1.0229,6.2031-1.0747v2.4517c-0.0098,0.9443-0.0176,1.8911-0.0254,2.8394
	c-0.0068,0.9331-0.0146,1.8672-0.0244,2.8018c-0.5596,0.5571-1.0928,1.1704-1.6084,1.7632
	c-1.0947,1.2568-2.2266,2.5566-3.6807,3.4209c-1.249,0.1523-2.5654,0.2266-4.0234,0.2266c-2.3135,0-4.665-0.1904-6.9385-0.3745
	c-0.4824-0.0391-0.9648-0.0781-1.4463-0.1157c1.2461-1.2451,2.623-2.5679,4.3223-4.1538L271.5791,385.2168z M265.415,401.4893
	c-0.6826,0.7925-1.5869,0.9551-2.7354,0.9551c-0.2002,0-0.4014-0.0049-0.6025-0.0093c-0.3145-0.0068-0.6279-0.0142-0.9268-0.0034
	l-0.1926-1.2578l-0.0007-0.0083c-0.2803-3.0957-0.2002-6.2295-0.1025-8.9282c0.5547,0.0034,1.1094,0.0063,1.6641,0.0063
	c1.9048,0,4.4124-0.0286,6.9203-0.2462c0.5509,0.1031,1.4071,0.2683,2.2164,0.4244c0.5664,0.1089,1.1104,0.2139,1.5098,0.29
	c-0.2139,0.2729-0.4287,0.5469-0.6426,0.8203C270.3594,396.2954,268.123,399.1523,265.415,401.4893z M281.3662,402.332
	c-1.7129,0.3848-3.582,0.5718-5.7148,0.5718c-0.001,0-0.001,0-0.001,0c-2.333,0-4.7051-0.2222-6.999-0.437
	c-0.5605-0.0522-1.1191-0.1045-1.6758-0.1538c1.9258-1.6563,3.6865-3.541,5.3916-5.3643c1.3682-1.4639,2.7822-2.9771,4.2725-4.3628
	c1.7236-0.0708,3.4697-0.1328,5.0156-0.1875C281.7666,395.5503,281.6719,398.8003,281.3662,402.332z M281.7041,389.9722
	c-0.3936,0.1206-0.7256,0.1821-0.9883,0.1821c-0.3145,0-0.5371-0.0889-0.6602-0.2637c-0.1904-0.272-0.1602-0.7676,0.0908-1.4731
	c0.8525-0.27,1.4043-0.2461,1.6309,0.0718C281.9717,388.7617,281.9463,389.2603,281.7041,389.9722z M280.1768,331.9038
	l-0.0586-0.0078l0.0049,0.0581c0.21,2.5693-0.5732,5.2271-1.9961,6.7705c-1.0796,1.1714-2.4646,1.7035-4.1012,1.5684
	c-0.3378-0.0981-0.8373-0.2411-1.3402-0.3848c-0.5059-0.1455-1.0156-0.2915-1.3672-0.3931
	c0.1279-2.1362-0.1387-4.2817-0.3965-6.3569c-0.2676-2.1577-0.5449-4.3882-0.3789-6.6089c2.2764,0.1157,4.5928,0.1318,6.834,0.1475
	c3.8184,0.0264,7.7656,0.0537,11.624,0.5771l-0.4014,0.4092l-0.0332,0.0337c-0.8223,0.8281-1.6475,1.6558-2.4727,2.4834
	c-0.7441,0.7471-1.4883,1.4937-2.2305,2.2402C282.6797,332.2588,281.4395,332.0781,280.1768,331.9038z M284.8418,338.8921
	c0.1563-1.4507,0.3174-2.9507,0.7109-4.3818c0.8955-1.2856,2.1709-2.2412,3.4043-3.1646c0.3594-0.2695,0.7305-0.5474,1.0869-0.8291
	c0.0039,0.4341,0.0068,0.8682,0.0098,1.3022c0.0223,3.0145,0.0468,6.1305,0.2178,9.1895c-1.8241-0.1724-3.7087-0.3505-5.6089-0.5499
	C284.7294,339.937,284.7869,339.4058,284.8418,338.8921z M286.3682,343.4082c0.7852,0.0322,1.5723,0.0645,2.3623,0.0962
	c-0.1016,0.4146-0.293,1.1558-0.4023,1.561c-0.9414,0.9419-1.8232,1.8335-2.6934,2.7217c-0.1787-1.5259-0.3301-2.9766-0.4629-4.4282
	L286.3682,343.4082z M288.0264,390.1421c-0.6006,0.0327-1.1943,0.0645-1.6113,0.0884c-0.0986-2.4077-0.1484-4.8462-0.1484-7.2495
	c1.1094-1,2.2207-1.9746,3.2979-2.9175c0.4258,3.3115,0.3271,6.7017,0.2295,9.9819
	C289.3428,390.0713,288.6807,390.1069,288.0264,390.1421z M288.0029,394.9033c-0.8223,0.2881-1.3574,0.2778-1.583-0.0337
	c-0.1973-0.2729-0.1748-0.7891,0.0674-1.5332c0.8252-0.293,1.3643-0.2827,1.5898,0.0303
	C288.2744,393.6416,288.25,394.1582,288.0029,394.9033z M286.0635,379.657c0.0613-0.8594,0.172-2.4169,0.2305-3.2502
	c0.5645-0.0005,1.6172-0.0098,2.1563-0.0195c0.0684,0.1509,0.1611,0.3604,0.2568,0.5747c0.1106,0.2496,0.2214,0.4993,0.3052,0.6816
	C288.2057,378.2014,287.1541,378.9255,286.0635,379.657z M286.3662,403.2622c-0.7822-3.2266,0.6602-6.1348,3.6006-7.2656
	c0.127,2.2397,0.1445,4.5254,0.1621,6.7363l0.0039,0.4609C288.8037,403.2144,287.5986,403.2334,286.3662,403.2622z
	 M290.0654,373.1162c-0.2363,0.7646-0.6631,1.1206-1.3418,1.1206c-0.5713,0-1.2334-0.2534-1.874-0.4985
	c-0.3955-0.1519-0.7695-0.2949-1.1113-0.3755c0.0518-2.2471,0.0586-4.4863,0.0586-6.3848l0.2217-0.248
	c1.2031-1.3452,2.4463-2.7358,4.1152-3.5366c0.0107,0.5776,0.0244,1.1563,0.0381,1.7349
	C290.2354,367.6182,290.3008,370.3999,290.0654,373.1162z M286.127,360.9961c0.3545-0.1299,0.6494-0.1958,0.876-0.1958
	c0.2305,0,0.3887,0.0645,0.4854,0.1982c0.167,0.2305,0.1445,0.6729-0.0654,1.3154c-0.3516,0.125-0.6445,0.1885-0.8721,0.1885
	c-0.2373,0-0.4063-0.0693-0.5029-0.2056C285.8828,362.064,285.9092,361.6265,286.127,360.9961z M285.5352,357.2246
	c-0.0273-0.8652-0.0518-1.7305-0.0762-2.5957c-0.0361-1.272-0.0742-2.5869-0.1211-3.8809c1.6572-1.7114,3.2051-3.1206,4.7295-4.3052
	c0.0986,2.3516,0.1279,4.7412,0.1553,7.0532c0.0156,1.2896,0.0313,2.6226,0.0596,3.9346
	C288.7041,357.353,287.1074,357.2837,285.5352,357.2246z M248.6582,309.4187c2.749,0.0907,5.4971,0.1824,8.2461,0.2742
	c10.9736,0.3672,22.3203,0.7461,33.4883,1.0425c-0.0996,4.166-0.1152,8.6641-0.0508,13.7476h-0.2021
	c-5.6396,0-11.3613-0.2876-16.8945-0.5664c-5.5313-0.2783-11.251-0.5659-16.8867-0.5659c-2.1421,0-4.1267,0.0398-6.0693,0.1226
	c-0.1903-0.0752-0.4714-0.1885-0.7529-0.3022c-0.2705-0.1089-0.541-0.2183-0.7305-0.293c-0.0693-2.2446-0.0713-4.5288-0.0732-6.7383
	C248.7295,313.936,248.7271,311.6577,248.6582,309.4187z M248.8552,325.5408c1.665,0.11,3.355,0.2535,4.9895,0.3928
	c3.4658,0.2949,7.0508,0.6006,10.585,0.6006c1.5518,0,2.9814-0.0571,4.3701-0.1738c0.3711,2.7559,0.1377,5.5493-0.0879,8.2515
	c-0.1539,1.8434-0.3115,3.7485-0.2781,5.6282c-6.1077-0.4347-12.4023-0.6727-19.2405-0.7263
	C248.7817,334.6838,248.6687,329.9838,248.8552,325.5408z M249.1768,342.1973c0.9043,0.0054,1.9238,0.0112,2.9238,0.0112
	c0.8025,0,1.521-0.0039,2.1968-0.0117c4.7743,0.2578,9.4714,0.459,13.8374,0.6382c0.0254,0.5186,0.0615,1.0449,0.0967,1.5547
	c0.1074,1.5498,0.2178,3.1528,0.0332,4.7231c-1.9707,2.8818-4.4365,5.3926-7.1309,7.2612
	c-0.9756,0.0752-2.0332,0.1104-3.3281,0.1104c-0.7725,0-1.5576-0.0122-2.3174-0.0239c-0.7607-0.0117-1.5469-0.0239-2.3213-0.0239
	c-1.412,0-2.5619,0.0427-3.6139,0.1333c-0.3754-3.7925-0.3734-7.6636-0.3715-11.4082
	C249.1826,344.1895,249.1826,343.1851,249.1768,342.1973z M254.1929,359.2013c-0.0049,0.6283-0.0123,1.2584-0.019,1.89
	c-0.0078,0.6377-0.0156,1.2769-0.0205,1.9155c-0.4639,0.0415-0.9268,0.082-1.3896,0.1226
	c-1.0488,0.0913-2.1338,0.1865-3.1953,0.2891c0.0594-1.5468,0.1287-3.1084,0.1959-4.6194
	C251.2397,358.811,252.6892,358.9424,254.1929,359.2013z M249.5352,370.9844c-0.0106-1.6563-0.0227-3.3682-0.0674-5.054
	c0.7595,0.0521,1.5179,0.106,2.2783,0.1604c0.8242,0.0586,1.6494,0.1177,2.4775,0.1738c0.0654,0.2388,0.1611,0.5747,0.2578,0.9165
	c0.1125,0.3984,0.2275,0.8044,0.3018,1.074v4.4465c-1.1758-0.0327-2.3662-0.0571-3.5186-0.0811
	c-0.5723-0.0117-1.1445-0.0239-1.7178-0.0366C249.542,372.0508,249.5381,371.5176,249.5352,370.9844z M255.2737,375.5432
	c-0.0886,0.4393-0.2139,1.0671-0.3401,1.7019c-0.1309,0.6553-0.2617,1.313-0.3525,1.7617
	c-0.8037,0.0889-1.6201,0.1714-2.4102,0.2515c-0.7842,0.0796-1.5947,0.1616-2.3936,0.2495
	c0.0049-0.6816,0.0078-1.3657,0.0098-2.0488c0.002-0.6869,0.0049-1.3723,0.0095-2.053c0.4189-0.0151,0.8574-0.0237,1.3069-0.0237
	C252.5598,375.3823,254.0254,375.4634,255.2737,375.5432z M249.6387,384.4829c-0.0057-0.823-0.0106-1.6453-0.021-2.4663
	c1.8757-0.0293,3.7861-0.0396,5.6353-0.0493l0.0713-0.0005l0.1777,7.1748l-5.8054-0.1772
	C249.6582,387.4692,249.6483,385.9513,249.6387,384.4829z M249.8052,391.8374c2.4502,0.0121,4.4626,0.0903,6.3198,0.2461
	l0.116,2.0509c-2.1655,0.6254-4.4128,0.9868-6.5327,1.301C249.7283,394.5249,249.7754,392.7944,249.8052,391.8374z
	 M249.8779,397.7939l0.1563-0.0093c2.0763-0.1221,4.2229-0.2489,6.3402-0.3553c0.0397,1.559,0.089,3.1515,0.1364,4.6932
	c-0.9619-0.0083-1.8477-0.0127-2.7061-0.0127c-1.3666,0-2.6248,0.0107-3.8484,0.0326
	C249.9369,400.771,249.9108,399.4088,249.8779,397.7939z"/>
</svg>
